<svg id="Capa_1" enable-background="new 0 0 497 497" height="512" viewBox="0 0 497 497" width="512" xmlns="http://www.w3.org/2000/svg"><g><g><path d="m497 139.781-248.5 10-248.5-10v-83.719c0-13.807 11.193-25 25-25h447c13.807 0 25 11.193 25 25z" fill="#91dafa"/></g><path d="m472 31.062h-43.144c13.807 0 25 11.193 25 25l-.537 83.719 21.841 10 21.841-10v-83.719c-.001-13.807-11.194-25-25.001-25z" fill="#6ec2fc"/><g><path d="m0 139.781v101.219l10 7.255-10 7.745v93.719l10 6.399-10 8.601v64.818c0 20.104 16.298 36.401 36.401 36.401h121.762l7.693-10 7.307 10h150.667l8.583-10 6.417 10h121.768c20.104 0 36.401-16.297 36.401-36.401v-64.818l-10-5.933 10-9.066v-93.72l-10-7.5 10-7.5v-101.219h-158.168l-7.561 10-7.439-10h-150.667l-6.545 10-8.455-10z" fill="#f8e883"/></g><g><path d="m453.318 139.781v297.035c0 16.083-13.038 29.121-29.121 29.121h36.401c20.104 0 36.401-16.297 36.401-36.401v-64.818l-10-5.171 10-9.829v-93.718l-10-7.5 10-7.5v-101.219z" fill="#ffd549"/></g><g><path d="m497 349.719h-158.169v-93.719h158.169v-15h-158.169v-101.219h-15v101.219h-150.667v-101.219h-15v101.219h-158.164v15h158.164v93.719h-158.164v15h158.164v101.219h15v-101.219h150.667v101.219h15v-101.219h158.169zm-173.169 0h-150.667v-93.719h150.667z" fill="#fcf5f5"/><g fill="#f8e883"><path d="m453.318 241h43.682v15h-43.682z"/><path d="m453.318 349.719h43.682v15h-43.682z"/></g></g></g></svg>