<svg height="512" viewBox="0 0 58 44" width="512" xmlns="http://www.w3.org/2000/svg"><g id="Page-1" fill="none" fill-rule="evenodd"><g id="036---Cash" fill-rule="nonzero"><path id="Shape" d="m8 28v5c0 .5522847.44771525 1 1 1h25v-6z" fill="#d25627"/><path id="Shape" d="m4 23v5c0 .5522847.44771525 1 1 1h30v-6z" fill="#e57e25"/><path id="Shape" d="m48 24h-47c-.55228475 0-1-.4477153-1-1v-22c0-.55228475.44771525-1 1-1h46c.5522847 0 1 .44771525 1 1z" fill="#f29c1f"/><ellipse id="Oval" cx="24" cy="12" fill="#f0c419" rx="11" ry="12"/><path id="Shape" d="m25 11.091v-4.937c1.1128409.25246244 1.9267959 1.20723172 2 2.346 0 .55228475.4477153 1 1 1s1-.44771525 1-1c-.0965423-2.24159872-1.7783513-4.09537268-4-4.409v-.091c0-.55228475-.4477153-1-1-1s-1 .44771525-1 1v.091c-2.2216487.31362732-3.9034577 2.16740128-4 4.409.0965423 2.2415987 1.7783513 4.0953727 4 4.409v4.937c-1.1128409-.2524624-1.9267959-1.2072317-2-2.346 0-.5522847-.4477153-1-1-1s-1 .4477153-1 1c.0965423 2.2415987 1.7783513 4.0953727 4 4.409v.091c0 .5522847.4477153 1 1 1s1-.4477153 1-1v-.091c2.2216487-.3136273 3.9034577-2.1674013 4-4.409-.0965423-2.2415987-1.7783513-4.0953727-4-4.409zm-4-2.591c.0732041-1.13876828.8871591-2.09353756 2-2.346v4.692c-1.1128409-.2524624-1.9267959-1.20723172-2-2.346zm4 9.346v-4.692c1.1128409.2524624 1.9267959 1.2072317 2 2.346-.0732041 1.1387683-.8871591 2.0935376-2 2.346z" fill="#ecf0f1"/><g fill="#f0c419"><path id="Shape" d="m4 9c-.55228475 0-1-.44771525-1-1v-4c0-.55228475.44771525-1 1-1h4c.55228475 0 1 .44771525 1 1s-.44771525 1-1 1h-3v3c0 .55228475-.44771525 1-1 1z"/><path id="Shape" d="m44 9c-.5522847 0-1-.44771525-1-1v-3h-3c-.5522847 0-1-.44771525-1-1s.4477153-1 1-1h4c.5522847 0 1 .44771525 1 1v4c0 .55228475-.4477153 1-1 1z"/><path id="Shape" d="m8 21h-4c-.55228475 0-1-.4477153-1-1v-4c0-.5522847.44771525-1 1-1s1 .4477153 1 1v3h3c.55228475 0 1 .4477153 1 1s-.44771525 1-1 1z"/></g><path id="Shape" d="m58 31c-.0065418 6.270573-4.4883242 11.6428362-10.6561405 12.7733981-6.1678164 1.130562-12.2636748-2.3028175-14.4938595-8.1633981-.5638834-1.4714703-.85202-3.0341874-.85-4.61 0-7.1797017 5.8202983-13 13-13 1.0622508-.0034506 2.1206652.1275911 3.15.39 5.7893306 1.4429302 9.8516791 6.6435611 9.85 12.61z" fill="#2fa8cc"/><path id="Shape" d="m49 23c0 7.1797017-5.8202983 13-13 13-1.0622508.0034506-2.1206652-.1275911-3.15-.39-.5638834-1.4714703-.85202-3.0341874-.85-4.61 0-3.4478144 1.3696389-6.7544152 3.8076118-9.1923882 2.437973-2.4379729 5.7445738-3.8076118 9.1923882-3.8076118 1.0622508-.0034506 2.1206652.1275911 3.15.39.5638834 1.4714703.85202 3.0341874.85 4.61z" fill="#67b9cc"/><path id="Shape" d="m49 36c-.2651948-.0000566-.5195073-.1054506-.707-.293l-4-4c-.1875494-.1874927-.2929434-.4418052-.293-.707v-8c0-.5522847.4477153-1 1-1s1 .4477153 1 1v7.586l3.707 3.707c.2859079.2859943.3714219.7160366.216678 1.0896546-.1547439.3736179-.5192821.6172591-.923678.6173454z" fill="#285680"/></g></g></svg>