<svg height="512pt" viewBox="-5 0 511 512" width="512pt" xmlns="http://www.w3.org/2000/svg"><path d="m502.324219 261.089844c0 138.574218-112.339844 250.910156-250.914063 250.910156-138.574218 0-250.910156-112.335938-250.910156-250.910156 0-138.574219 112.335938-250.914063 250.910156-250.914063 138.574219 0 250.914063 112.339844 250.914063 250.914063zm0 0" fill="#96ceb4"/><path d="m462.464844 388.003906-137.960938-42.382812c-13.722656-4.214844-26.566406 8.632812-22.355468 22.355468l39.128906 127.382813c52.65625-20.214844 96.773437-57.625 125.433594-105.40625-1.289063-.796875-2.695313-1.46875-4.246094-1.949219zm0 0" fill="#71a58a"/><path d="m454.320312 248c0 112.0625-90.847656 202.90625-202.910156 202.90625s-202.90625-90.84375-202.90625-202.90625 90.84375-202.910156 202.90625-202.910156 202.910156 90.847656 202.910156 202.910156zm0 0" fill="#e05858"/><path d="m324.503906 345.621094c-13.722656-4.214844-26.566406 8.632812-22.355468 22.355468l21.40625 69.679688c35.070312-13.347656 65.457031-36.132812 88.105468-65.257812zm0 0" fill="#bf4343"/><path d="m454.320312 202.90625c0 112.066406-90.847656 202.910156-202.910156 202.910156s-202.90625-90.84375-202.90625-202.910156c0-112.0625 90.84375-202.90625 202.90625-202.90625s202.910156 90.84375 202.910156 202.90625zm0 0" fill="#ff6f69"/><g fill="#ffeead"><path d="m170.59375 204.988281c6.132812-1.894531 19.667969-6.238281 19.667969-30.796875 0-32.117187-26.222657-34.003906-48.214844-34.003906h-20.511719c-7.191406 0-14.800781 0-19.667968 4.910156-4.445313 4.152344-4.445313 9.632813-4.652344 18.699219v87.09375c0 7.367187.207031 13.226563 5.074218 17.757813 5.078126 4.722656 12.054688 4.914062 19.03125 4.914062h23.050782c18.609375-.191406 48.851562-.378906 48.851562-36.648438 0-27.019531-15.441406-30.417968-22.628906-31.925781zm-38.273438-38.921875h6.339844c6.980469.1875 15.441406.378906 15.441406 13.035156 0 13.222657-8.675781 13.414063-15.441406 13.414063h-6.339844zm8.035157 81.046875h-8.035157v-29.660156h7.820313c6.769531 0 16.496094.191406 16.496094 15.113281 0 14.359375-9.511719 14.546875-16.28125 14.546875zm0 0"/><path d="m290.707031 139.808594c-2.324219-.753906-4.445312-.945313-6.558593-.945313-4.652344 0-8.882813 1.324219-12.050782 3.589844-6.550781 5.101563-6.550781 12.277344-6.550781 18.511719v72.167968c0 4.722657-.214844 14.355469-10.996094 14.355469-11.210937 0-11.210937-9.257812-11.210937-13.789062v-73.300781c0-5.476563 0-12.84375-6.132813-17.757813-3.59375-3.023437-8.242187-3.777344-12.050781-3.777344-2.542969 0-7.613281.378907-12.261719 3.96875-6.140625 4.722657-6.347656 10.953125-6.347656 17.1875v68.957031c0 11.527344 0 24.941407 10.15625 34.570313 6.339844 6.046875 18.816406 11.90625 38.90625 11.90625 14.804687 0 28.546875-3.402344 37.644531-13.039063 9.308594-10.011718 9.515625-22.667968 9.515625-31.925781v-69.519531c-.011719-6.996094-.222656-17.574219-12.0625-21.160156zm0 0"/><path d="m391.148438 138.863281c-13.109376 0-16.707032 10.578125-19.875 19.835938-2.753907 8.496093-4.652344 14.542969-7.195313 24.75-2.113281 8.875-2.746094 11.898437-4.015625 22.289062-.636719-10.769531-1.269531-20.402343-10.996094-48.742187-2.75-7.746094-6.339844-18.136719-19.875-18.136719-10.367187 0-17.34375 6.988281-17.34375 16.058594 0 4.34375 1.484375 7.746093 3.171875 11.902343l26.640625 61.019532v24.367187c0 6.609375.214844 14.171875 6.980469 19.082031 3.378906 2.457032 8.035156 3.214844 11.628906 3.214844 3.597657 0 8.675781-.378906 12.898438-4.347656 5.714843-5.101562 5.714843-11.710938 5.714843-18.324219v-23.992187l26.429688-61.019532c1.691406-3.96875 3.390625-7.9375 3.390625-12.46875.003906-9.632812-8.246094-15.488281-17.554687-15.488281zm0 0"/></g><path d="m324.503906 345.621094c-13.722656-4.214844-26.566406 8.632812-22.355468 22.355468l8.886718 28.921876c24.425782-7.496094 46.855469-19.511719 66.394532-35.015626zm0 0" fill="#e05858"/><path d="m493.257812 435.632812-43.769531-43.289062 19.648438-19.648438c8.46875-8.46875 4.878906-22.898437-6.566407-26.414062l-122.503906-37.628906c-12.179687-3.746094-23.585937 7.664062-19.847656 19.847656l37.628906 122.5c3.519532 11.449219 17.949219 15.035156 26.417969 6.566406l19.644531-19.644531 43.769532 43.285156c6.203124 6.203125 16.261718 6.203125 22.460937 0l23.117187-23.113281c6.203126-6.203125 6.203126-16.253906 0-22.460938zm0 0" fill="#ffeead"/></svg>