<?xml version="1.0" encoding="UTF-8"?>
<svg xmlns="http://www.w3.org/2000/svg" xmlns:xlink="http://www.w3.org/1999/xlink" width="24pt" height="24pt" viewBox="0 0 24 24" version="1.1">
<g id="surface1">
<path style=" stroke:none;fill-rule:nonzero;fill:rgb(0%,0%,0%);fill-opacity:1;" d="M 6.0625 11.996094 C 6.0625 14.042969 7.722656 15.703125 9.769531 15.703125 C 11.8125 15.703125 13.476562 14.042969 13.476562 11.996094 C 13.476562 9.949219 11.8125 8.289062 9.769531 8.289062 C 7.722656 8.289062 6.0625 9.949219 6.0625 11.996094 Z M 10.089844 9.773438 C 10.089844 9.996094 10.089844 9.996094 10.316406 10.035156 C 10.484375 10.066406 10.652344 10.113281 10.808594 10.183594 C 10.894531 10.222656 10.929688 10.28125 10.902344 10.375 C 10.863281 10.511719 10.824219 10.648438 10.777344 10.785156 C 10.734375 10.910156 10.695312 10.929688 10.574219 10.871094 C 10.324219 10.75 10.066406 10.699219 9.789062 10.714844 C 9.714844 10.71875 9.644531 10.730469 9.578125 10.757812 C 9.339844 10.863281 9.304688 11.125 9.503906 11.285156 C 9.605469 11.371094 9.722656 11.429688 9.847656 11.476562 C 10.054688 11.566406 10.265625 11.648438 10.464844 11.761719 C 11.101562 12.113281 11.273438 12.910156 10.828125 13.457031 C 10.667969 13.652344 10.457031 13.78125 10.207031 13.851562 C 10.101562 13.878906 10.050781 13.9375 10.054688 14.046875 C 10.0625 14.152344 10.054688 14.265625 10.054688 14.375 C 10.054688 14.472656 10.007812 14.523438 9.910156 14.523438 C 9.792969 14.53125 9.675781 14.53125 9.558594 14.523438 C 9.457031 14.523438 9.40625 14.464844 9.40625 14.363281 C 9.40625 14.285156 9.40625 14.203125 9.40625 14.125 C 9.40625 13.949219 9.398438 13.9375 9.230469 13.914062 C 9.015625 13.878906 8.800781 13.832031 8.601562 13.734375 C 8.445312 13.65625 8.429688 13.621094 8.472656 13.457031 C 8.507812 13.332031 8.542969 13.210938 8.578125 13.089844 C 8.621094 12.949219 8.660156 12.933594 8.785156 12.996094 C 9.007812 13.109375 9.242188 13.175781 9.484375 13.207031 C 9.640625 13.226562 9.796875 13.210938 9.945312 13.148438 C 10.21875 13.03125 10.261719 12.714844 10.027344 12.523438 C 9.949219 12.460938 9.859375 12.410156 9.769531 12.371094 C 9.527344 12.269531 9.28125 12.1875 9.054688 12.050781 C 8.6875 11.828125 8.453125 11.53125 8.484375 11.082031 C 8.511719 10.578125 8.800781 10.261719 9.261719 10.09375 C 9.449219 10.027344 9.449219 10.027344 9.449219 9.832031 C 9.449219 9.761719 9.449219 9.695312 9.449219 9.632812 C 9.457031 9.480469 9.480469 9.457031 9.632812 9.449219 C 9.679688 9.449219 9.722656 9.449219 9.769531 9.449219 C 10.089844 9.457031 10.089844 9.457031 10.089844 9.773438 Z M 4.375 10.96875 C 4.941406 10.96875 5.402344 11.429688 5.402344 11.996094 C 5.402344 12.5625 4.941406 13.019531 4.375 13.019531 C 3.808594 13.019531 3.351562 12.5625 3.351562 11.996094 C 3.34375 11.429688 3.804688 10.96875 4.375 10.96875 Z M 18.484375 8.195312 C 17.773438 8.195312 17.183594 8.738281 17.097656 9.429688 C 16.429688 9.195312 15.945312 8.5625 15.945312 7.8125 C 15.945312 7.667969 15.964844 7.53125 16 7.394531 L 3.433594 7.394531 C 3.453125 7.496094 3.460938 7.597656 3.460938 7.710938 C 3.460938 8.660156 2.695312 9.425781 1.75 9.425781 C 1.644531 9.425781 1.542969 9.417969 1.445312 9.398438 L 1.445312 14.597656 C 1.542969 14.578125 1.644531 14.570312 1.75 14.570312 C 2.695312 14.570312 3.460938 15.335938 3.460938 16.285156 C 3.460938 16.390625 3.453125 16.5 3.433594 16.601562 L 13.71875 16.601562 L 13.71875 17.652344 C 13.71875 17.789062 13.738281 17.917969 13.777344 18.046875 L 1.695312 18.046875 C 0.761719 18.046875 0 17.289062 0 16.355469 L 0 7.644531 C 0 6.710938 0.757812 5.953125 1.695312 5.953125 L 17.839844 5.953125 C 18.773438 5.953125 19.535156 6.710938 19.535156 7.644531 L 19.535156 8.195312 Z M 17.25 12.433594 L 17.25 17.644531 C 17.25 17.867188 17.074219 18.042969 16.855469 18.042969 L 15.109375 18.042969 C 14.890625 18.042969 14.714844 17.867188 14.714844 17.644531 L 14.714844 12.433594 C 14.714844 12.214844 14.890625 12.039062 15.109375 12.039062 L 16.855469 12.039062 C 17.074219 12.039062 17.25 12.214844 17.25 12.433594 Z M 20.625 9.59375 L 20.625 17.644531 C 20.625 17.867188 20.449219 18.042969 20.230469 18.042969 L 18.484375 18.042969 C 18.265625 18.042969 18.089844 17.867188 18.089844 17.644531 L 18.089844 9.59375 C 18.089844 9.371094 18.265625 9.195312 18.484375 9.195312 L 20.230469 9.195312 C 20.449219 9.195312 20.625 9.378906 20.625 9.59375 Z M 24 14.246094 L 24 17.644531 C 24 17.867188 23.824219 18.042969 23.605469 18.042969 L 21.859375 18.042969 C 21.640625 18.042969 21.464844 17.867188 21.464844 17.644531 L 21.464844 14.246094 C 21.464844 14.027344 21.640625 13.851562 21.859375 13.851562 L 23.605469 13.851562 C 23.820312 13.855469 24 14.03125 24 14.246094 Z M 24 14.246094 "/>
</g>
</svg>
