<svg enable-background="new 0 0 24 24" height="512" viewBox="0 0 24 24" width="512" xmlns="http://www.w3.org/2000/svg"><g id="Color"><g><path d="m22.25 0h-7.5c-.965 0-1.75.785-1.75 1.75v2.5c0 .965.785 1.75 1.75 1.75h7.5c.965 0 1.75-.785 1.75-1.75v-2.5c0-.965-.785-1.75-1.75-1.75z" fill="#90a4ae"/></g><g><path d="m22.25 9h-7.5c-.965 0-1.75.785-1.75 1.75v2.5c0 .965.785 1.75 1.75 1.75h7.5c.965 0 1.75-.785 1.75-1.75v-2.5c0-.965-.785-1.75-1.75-1.75z" fill="#cfd8dc"/></g><g><path d="m22.25 18h-7.5c-.965 0-1.75.785-1.75 1.75v2.5c0 .965.785 1.75 1.75 1.75h7.5c.965 0 1.75-.785 1.75-1.75v-2.5c0-.965-.785-1.75-1.75-1.75z" fill="#90a4ae"/></g><g><path d="m1.75 24h7.5c.965 0 1.75-.785 1.75-1.75v-20.5c0-.965-.785-1.75-1.75-1.75h-7.5c-.965 0-1.75.785-1.75 1.75v20.5c0 .965.785 1.75 1.75 1.75z" fill="#cfd8dc"/></g></g><g id="regular"><g><path d="m22.25 6h-7.5c-.965 0-1.75-.785-1.75-1.75v-2.5c0-.965.785-1.75 1.75-1.75h7.5c.965 0 1.75.785 1.75 1.75v2.5c0 .965-.785 1.75-1.75 1.75zm-7.5-4.5c-.138 0-.25.112-.25.25v2.5c0 .138.112.25.25.25h7.5c.138 0 .25-.112.25-.25v-2.5c0-.138-.112-.25-.25-.25z"/></g><g><path d="m22.25 15h-7.5c-.965 0-1.75-.785-1.75-1.75v-2.5c0-.965.785-1.75 1.75-1.75h7.5c.965 0 1.75.785 1.75 1.75v2.5c0 .965-.785 1.75-1.75 1.75zm-7.5-4.5c-.138 0-.25.112-.25.25v2.5c0 .138.112.25.25.25h7.5c.138 0 .25-.112.25-.25v-2.5c0-.138-.112-.25-.25-.25z"/></g><g><path d="m22.25 24h-7.5c-.965 0-1.75-.785-1.75-1.75v-2.5c0-.965.785-1.75 1.75-1.75h7.5c.965 0 1.75.785 1.75 1.75v2.5c0 .965-.785 1.75-1.75 1.75zm-7.5-4.5c-.138 0-.25.112-.25.25v2.5c0 .138.112.25.25.25h7.5c.138 0 .25-.112.25-.25v-2.5c0-.138-.112-.25-.25-.25z"/></g><g><path d="m9.25 24h-7.5c-.965 0-1.75-.785-1.75-1.75v-20.5c0-.965.785-1.75 1.75-1.75h7.5c.965 0 1.75.785 1.75 1.75v20.5c0 .965-.785 1.75-1.75 1.75zm-7.5-22.5c-.138 0-.25.112-.25.25v20.5c0 .138.112.25.25.25h7.5c.138 0 .25-.112.25-.25v-20.5c0-.138-.112-.25-.25-.25z"/></g></g></svg>