<svg id="Layer_1" enable-background="new 0 0 512 512" height="512" viewBox="0 0 512 512" width="512" xmlns="http://www.w3.org/2000/svg"><g clip-rule="evenodd" fill-rule="evenodd"><g><g><path d="m337.907 63.557c0-29.451-73.852-53.329-164.954-53.329-91.103 0-164.956 23.877-164.956 53.331v385.81c0 69.865 329.91 69.867 329.91 0z" fill="#ffe177"/><path d="m337.907 63.557c0-29.451-73.852-53.328-164.954-53.328v491.54c82.477 0 164.954-17.466 164.954-52.4z" fill="#ffd064"/><path d="m337.907 63.559v96.454c0 69.867-329.91 69.865-329.91 0v-96.454c0 69.865 329.91 69.867 329.91 0z" fill="#ffd064"/><path d="m337.907 63.559v96.454c0 34.933-82.477 52.4-164.954 52.4v-96.454c82.477-.001 164.954-17.467 164.954-52.4z" fill="#ffc344"/><path d="m337.907 256.462v96.454c0 69.867-329.91 69.865-329.91 0v-96.454c0 69.865 329.91 69.867 329.91 0z" fill="#ffd064"/><path d="m337.907 256.462v96.454c0 34.933-82.477 52.4-164.954 52.4v-96.454c82.477 0 164.954-17.466 164.954-52.4z" fill="#ffc344"/></g><g><circle cx="373.37" cy="371.146" fill="#8ac9fe" r="130.625"/><path d="m373.37 240.521c72.142 0 130.625 58.483 130.625 130.625s-58.483 130.625-130.625 130.625z" fill="#60b7ff"/><path d="m378.037 298.691 20.854 46.049 50.239 5.604c2.086.233 3.742 1.582 4.39 3.578s.102 4.061-1.448 5.475l-37.351 34.063 10.195 49.513c.423 2.055-.349 4.047-2.047 5.281-1.698 1.233-3.83 1.352-5.655.314l-43.938-24.997-43.938 24.997c-1.824 1.037-3.957.919-5.655-.314-1.698-1.234-2.47-3.226-2.046-5.281l10.195-49.512-37.35-34.064c-1.551-1.414-2.097-3.479-1.448-5.475.648-1.996 2.304-3.345 4.39-3.578l50.239-5.604 20.854-46.049c.866-1.912 2.661-3.069 4.759-3.069 2.1 0 3.895 1.158 4.761 3.069z" fill="#ffd944"/><path d="m378.037 298.691 20.854 46.049 50.239 5.604c2.086.233 3.742 1.582 4.39 3.578s.102 4.061-1.448 5.475l-37.351 34.063 10.195 49.513c.423 2.055-.349 4.047-2.047 5.281-1.698 1.233-3.83 1.352-5.655.314l-43.846-24.945v-128c2.061.033 3.816 1.185 4.669 3.068z" fill="#ffc107"/></g></g><path d="m409.443 387.47c-2.123 1.901-3.02 4.76-2.453 7.52l8.964 43.507-38.639-21.957c-2.453-1.401-5.426-1.401-7.879 0l-38.639 21.957 8.964-43.507c.566-2.76-.33-5.619-2.453-7.52l-32.789-29.93 44.111-4.93c2.831-.311 5.237-2.081 6.416-4.652l18.352-40.46 18.305 40.46c1.179 2.571 3.585 4.34 6.416 4.652l44.111 4.93zm58.878-38.398c-.991-2.991-3.633-5.133-6.746-5.482l-57.18-6.383-23.731-52.41c-1.274-2.854-4.152-4.699-7.265-4.699-3.161 0-6.039 1.845-7.313 4.699l-23.73 52.41-57.18 6.383c-3.114.349-5.756 2.491-6.746 5.482-.944 2.991-.094 6.265 2.217 8.379l42.555 38.771-11.653 56.359c-.613 3.071.613 6.237 3.161 8.082 2.548 1.849 5.897 2.038 8.681.477l50.009-28.448 49.961 28.448c1.274.703 2.642 1.052 3.963 1.052 1.651 0 3.302-.509 4.718-1.529 2.548-1.845 3.774-5.01 3.161-8.082l-11.653-56.359 42.508-38.771c2.357-2.114 3.206-5.388 2.263-8.379zm-94.922 144.7c67.606 0 122.615-55.014 122.615-122.62 0-67.62-55.009-122.629-122.615-122.629-67.653 0-122.662 55.009-122.662 122.629-.001 67.605 55.009 122.62 122.662 122.62zm-215.698-.213c-58.406-1.547-106.669-11.488-129.173-26.599-8.303-5.572-12.55-11.488-12.55-17.588v-68.162c28.26 21.702 92.657 32.133 156.678 32.133 23.07 0 46.14-1.373 67.417-4.052 8.114 28.269 25.004 52.872 47.461 70.658-32.552 9.779-80.485 14.922-129.833 13.61zm-141.722-208.819v68.182c0 4.868 2.595 9.469 7.832 14.04 14.625 12.691 48.074 22.66 91.714 27.368 39.252 4.241 82.892 3.949 121.059-.717-1.227-7.313-1.84-14.814-1.84-22.461 0-21.254 4.812-41.38 13.398-59.402-23.259 3.359-49.301 5.09-75.485 5.09-16.276 0-32.647-.67-48.452-2.043-29.392-2.547-81.948-9.827-108.226-30.057zm0-96.351v68.068c0 5.105 2.831 9.893 8.586 14.663 32.883 27.25 147.808 38.309 233.719 22.792 17.031-25.273 42.177-44.654 71.616-54.401v-51.122c-9.53 7.313-23.353 13.531-41.375 18.621-30.571 8.638-71.616 13.398-115.586 13.398-43.923 0-84.968-4.76-115.539-13.398-18.021-5.09-31.844-11.308-41.421-18.621zm0-96.451c9.577 7.303 23.4 13.531 41.422 18.612 7.784 2.203 16.229 4.152 25.24 5.831 26.797 5.539 57.887 8.511 90.299 8.511 32.458 0 63.501-2.972 90.299-8.511 9.011-1.68 17.503-3.628 25.287-5.831 18.022-5.081 31.845-11.309 41.375-18.612v68.073c0 24.896-68.927 44.399-156.961 44.399-42.46 0-81.995-4.548-111.198-12.799-29.062-8.204-45.763-19.72-45.763-31.6zm156.961-73.71c-97.234 0-156.961 26.401-156.961 45.333v.028c.047 12.37 25.57 27.92 70.39 37.209 25.24 4.661 55.104 7.152 86.572 7.152 32.411 0 62.18-2.642 86.901-7.209 44.63-9.303 70.012-24.811 70.059-37.153 0-.009 0-.019 0-.038 0-18.921-59.68-45.322-156.961-45.322zm200.459 214.291c-9.436 0-18.588.948-27.505 2.741v-171.709c0-18.253-18.588-33.921-53.83-45.309-31.94-10.332-74.258-16.012-119.124-16.012s-87.185 5.68-119.077 16.012c-35.242 11.389-53.877 27.056-53.877 45.309v.009 385.811c0 11.757 6.605 22.15 19.579 30.878 25.288 16.97 75.485 27.66 137.713 29.307 5.378.142 10.757.212 16.087.212 51.896 0 99.545-6.718 130.825-18.541 20.381 11.79 44.017 18.541 69.21 18.541 76.428 0 138.609-62.181 138.609-138.618-.002-76.441-62.182-138.631-138.61-138.631z"/></g></svg>